<?xml version="1.0" encoding="UTF-8"?>
<svg version="1.1" xmlns="http://www.w3.org/2000/svg" width="146" height="146">
<path d="M0 0 C48.18 0 96.36 0 146 0 C146 48.18 146 96.36 146 146 C97.82 146 49.64 146 0 146 C0 97.82 0 49.64 0 0 Z " fill="#010101" transform="translate(0,0)"/>
<path d="M0 0 C1.73338266 0.82452797 3.46137509 1.66038426 5.1875 2.5 C6.63189453 3.19609375 6.63189453 3.19609375 8.10546875 3.90625 C13.31358388 6.59587671 18.23177586 9.79755135 23.20645142 12.88983154 C26.19969808 14.74258762 29.20905468 16.56865802 32.21875 18.39453125 C32.81774612 18.75815765 33.41674225 19.12178406 34.03388977 19.49642944 C35.24547013 20.23176046 36.4571553 20.96691882 37.66894531 21.7019043 C39.52694769 22.82884467 41.38459505 23.95636846 43.2421875 25.08398438 C46.49394992 27.05738321 49.74579922 29.03062316 53 31 C54.27327148 31.91978638 54.27327148 31.91978638 55.57226562 32.8581543 C57.94888846 34.28791724 57.94888846 34.28791724 60.46337891 33.38769531 C63.19667899 31.89240391 65.90852015 30.39099372 68.5859375 28.796875 C69.67116699 28.15250488 70.75639648 27.50813477 71.87451172 26.84423828 C73.0413876 26.14623651 74.20821599 25.44815534 75.375 24.75 C76.57685114 24.03476738 77.77883845 23.31976352 78.98095703 22.60498047 C87.95196779 17.26219933 96.87550795 11.8422205 105.75146484 6.34277344 C106.63527832 5.79911133 107.5190918 5.25544922 108.4296875 4.6953125 C109.19522949 4.22109863 109.96077148 3.74688477 110.74951172 3.25830078 C113.10419239 1.94174359 115.47675238 0.94753929 118 0 C116.89085191 10.6478217 116.89085191 10.6478217 114 15 C109.23161059 18.6901009 103.84912132 21.40153171 98.56054688 24.26757812 C92.74869563 27.34695165 92.74869563 27.34695165 88.88378906 32.38696289 C88.34148854 34.76667873 88.34148854 34.76667873 88.2253418 37.046875 C88 39 88 39 85.875 41.5625 C80.93299041 44.0335048 76.26871953 43.44332406 71 42 C65.92755705 47.22917574 62.54835743 52.16217136 60 59 C59.34 59 58.68 59 58 59 C57.62488281 58.19175781 57.24976563 57.38351563 56.86328125 56.55078125 C53.17660829 48.29623954 53.17660829 48.29623954 47 42 C44.59122743 42.11341534 44.59122743 42.11341534 42 43 C39.23273126 43.42833488 36.75123205 43.57803663 34 43 C30.24038993 39.72034015 30.24038993 39.72034015 29 37 C29.02707031 35.92105469 29.05414063 34.84210938 29.08203125 33.73046875 C27.54618625 28.43540746 24.5247704 27.31912512 19.8828125 24.65234375 C18.80773437 24.06582031 17.73265625 23.47929688 16.625 22.875 C14.50694428 21.69574434 12.39468345 20.50600525 10.2890625 19.3046875 C9.34756348 18.78890137 8.40606445 18.27311523 7.43603516 17.74169922 C3.011025 14.57793669 1.38945624 10.13029995 0 5 C-0.03148663 3.33363078 -0.03659028 1.66626496 0 0 Z " fill="#F7F7F7" transform="translate(16,37)"/>
<path d="M0 0 C0.04557129 2.61781768 0.05767082 5.22941932 0.02734375 7.84765625 C0.00974528 9.87650822 0.03983822 11.9066214 0.12890625 13.93359375 C0.12350742 17.82614981 0.03596477 20.78443329 -2.5546875 23.82421875 C-5.24657004 25.80241713 -8.07741958 27.39873947 -11 29 C-12.65147473 29.94619667 -14.30105341 30.8957067 -15.94921875 31.84765625 C-19.60612328 33.95379595 -23.27555508 36.03566413 -26.953125 38.10546875 C-31.82732591 40.86866011 -36.51170579 43.8237987 -41.13671875 46.98828125 C-41.75160156 47.32214844 -42.36648437 47.65601563 -43 48 C-43.66 47.67 -44.32 47.34 -45 47 C-42.05226582 44.00292183 -39.09808792 41.01239506 -36.13769531 38.02783203 C-35.13100272 37.01106601 -34.12611034 35.99251438 -33.12304688 34.97216797 C-31.68305629 33.50798782 -30.23676744 32.05029795 -28.7890625 30.59375 C-27.91975098 29.71396484 -27.05043945 28.83417969 -26.15478516 27.92773438 C-24 26 -24 26 -22 26 C-21.70996094 25.41863281 -21.41992188 24.83726563 -21.12109375 24.23828125 C-20.43002167 22.85854501 -19.73545322 21.48054579 -19.03515625 20.10546875 C-18.71417969 19.47253906 -18.39320312 18.83960937 -18.0625 18.1875 C-17.70414063 17.49140625 -17.34578125 16.7953125 -16.9765625 16.078125 C-15.84585799 13.8059637 -15.84585799 13.8059637 -14.9375 10.4375 C-12.26585731 5.69748877 -5.80447013 0 0 0 Z " fill="#F0F0F1" transform="translate(129,57)"/>
<path d="M0 0 C1.77178053 0.956581 3.54239076 1.91532988 5.3125 2.875 C6.79169922 3.67550781 6.79169922 3.67550781 8.30078125 4.4921875 C13.25814467 7.2614238 14.44901762 8.69642621 16.1875 14.0625 C19.58465225 23.28770086 25.46790826 28.87055399 32.8359375 35.09375 C37.09573226 38.84606019 41.02442797 42.95110799 45 47 C41.75789697 47 40.86046653 46.54808199 38.1484375 44.9453125 C37.38740723 44.49994141 36.62637695 44.05457031 35.84228516 43.59570312 C35.02808105 43.11037109 34.21387695 42.62503906 33.375 42.125 C32.53630371 41.63193359 31.69760742 41.13886719 30.83349609 40.63085938 C29.0872254 39.60337115 27.34261739 38.57305234 25.59960938 37.54003906 C23.11717911 36.06941828 20.63002877 34.60721588 18.140625 33.1484375 C10.32792384 28.56800779 10.32792384 28.56800779 7.69702148 26.98632812 C6.19274572 26.112026 4.63581504 25.32974624 3.07421875 24.5625 C1 23 1 23 0.29296875 20.46875 C0.25816406 19.4890625 0.22335938 18.509375 0.1875 17.5 C0.14109375 16.44296875 0.0946875 15.3859375 0.046875 14.296875 C0.03140625 13.20890625 0.0159375 12.1209375 0 11 C-0.01546875 9.93265625 -0.0309375 8.8653125 -0.046875 7.765625 C-0.06029456 5.17564909 -0.04587721 2.58951353 0 0 Z " fill="#F2F2F2" transform="translate(21,57)"/>
</svg>
