<?xml version="1.0" encoding="UTF-8"?>
<svg version="1.1" xmlns="http://www.w3.org/2000/svg" width="584" height="158">
<path d="M0 0 C0.66 0 1.32 0 2 0 C2 0.66 2 1.32 2 2 C3.3303125 2.12375 3.3303125 2.12375 4.6875 2.25 C8 3 8 3 10.2265625 4.8046875 C13.5187249 7.41059633 16.91354401 9.07891776 20.6875 10.875 C26.11764757 13.51893113 31.31686533 16.316265 36.44921875 19.5078125 C39.53566261 21.31335852 42.72387093 22.87549874 45.9375 24.4375 C50.29497778 26.56014907 54.44736674 28.83206617 58.5 31.5 C62.65517628 34.20455261 66.8664943 36.6897112 71.25 39 C72.36890625 39.598125 73.4878125 40.19625 74.640625 40.8125 C78.55731384 42.19700396 80.98943099 41.89576161 85 41 C85 40.34 85 39.68 85 39 C85.97582031 38.51789063 86.95164062 38.03578125 87.95703125 37.5390625 C89.24224049 36.90114842 90.52739382 36.26312169 91.8125 35.625 C92.45509766 35.30789062 93.09769531 34.99078125 93.75976562 34.6640625 C96.63194461 33.23541389 99.3267821 31.78214527 102 30 C102.99 30 103.98 30 105 30 C105 29.34 105 28.68 105 28 C106.26691507 27.32591692 107.53870749 26.66099503 108.8125 26 C109.52019531 25.62875 110.22789062 25.2575 110.95703125 24.875 C113 24 113 24 116 24 C116 23.34 116 22.68 116 22 C121.625 19 121.625 19 125 19 C125 18.34 125 17.68 125 17 C126.65 16.67 128.3 16.34 130 16 C130 15.34 130 14.68 130 14 C130.886875 13.649375 131.77375 13.29875 132.6875 12.9375 C137.56586119 10.85672962 142.16838105 8.26316715 146.81640625 5.71875 C147.86699219 5.1515625 148.91757813 4.584375 150 4 C151.06089844 3.4121875 152.12179688 2.824375 153.21484375 2.21875 C156 1 156 1 159 2 C158.34 5.3 157.68 8.6 157 12 C156.34 12 155.68 12 155 12 C154.97421875 12.60328125 154.9484375 13.2065625 154.921875 13.828125 C154.45725173 20.37508931 154.45725173 20.37508931 152.125 23.5625 C150 25 150 25 147 25 C147 25.66 147 26.32 147 27 C144.03 27.495 144.03 27.495 141 28 C141 28.66 141 29.32 141 30 C139.35 30.33 137.7 30.66 136 31 C136 31.66 136 32.32 136 33 C135.00097656 33.37769531 134.00195312 33.75539062 132.97265625 34.14453125 C128.99795032 35.78670164 125.5119304 37.48651706 122 40 C120.94955284 42.97699339 120.99116357 45.19493286 121.08203125 48.33203125 C120.96438194 52.158435 119.73398364 54.13085632 117.078125 56.8125 C112.69366162 59.31790765 107.83002019 58.88494076 103 58 C99.75 56 99.75 56 98 54 C97.21625 54.99 96.4325 55.98 95.625 57 C94.75875 57.99 93.8925 58.98 93 60 C92.34 60 91.68 60 91 60 C90.67 61.32 90.34 62.64 90 64 C89.34 64 88.68 64 88 64 C87.86271484 65.02673828 87.86271484 65.02673828 87.72265625 66.07421875 C86.82696359 69.70056363 85.24973718 72.55047308 83.4375 75.8125 C83.10814453 76.40998047 82.77878906 77.00746094 82.43945312 77.62304688 C81.63226733 79.08533998 80.81695083 80.5431399 80 82 C79.01 82 78.02 82 77 82 C76.5978125 80.90945312 76.5978125 80.90945312 76.1875 79.796875 C72.34620109 69.94091068 67.68308716 60.39171693 59 54 C57.68 54.66 56.36 55.32 55 56 C55 56.66 55 57.32 55 58 C53.25034642 58.05429959 51.50020213 58.09292823 49.75 58.125 C48.77546875 58.14820313 47.8009375 58.17140625 46.796875 58.1953125 C43.8558243 57.98993186 42.38796119 57.70422871 40 56 C37.0466016 52.21035846 36.65628374 49.42606003 36.8125 44.6875 C36.85310547 43.08455078 36.85310547 43.08455078 36.89453125 41.44921875 C36.92933594 40.64097656 36.96414062 39.83273438 37 39 C34.03 38.505 34.03 38.505 31 38 C31 37.34 31 36.68 31 36 C30.44828125 35.88785156 29.8965625 35.77570313 29.328125 35.66015625 C26.59934789 34.88639227 24.27227057 33.73182306 21.75 32.4375 C20.41195312 31.75494141 20.41195312 31.75494141 19.046875 31.05859375 C18.37140625 30.70925781 17.6959375 30.35992187 17 30 C17 29.34 17 28.68 17 28 C16.29875 27.896875 15.5975 27.79375 14.875 27.6875 C11.60862353 26.90640997 8.9528148 25.57941257 6 24 C6 23.34 6 22.68 6 22 C5.34 22 4.68 22 4 22 C3.1321772 18.89948553 2.28313233 15.79413335 1.4375 12.6875 C1.19064453 11.80642578 0.94378906 10.92535156 0.68945312 10.01757812 C0.46064453 9.17001953 0.23183594 8.32246094 -0.00390625 7.44921875 C-0.21861572 6.66893311 -0.4333252 5.88864746 -0.65454102 5.0847168 C-1 3 -1 3 0 0 Z " fill="#484848" transform="translate(25,31)"/>
<path d="M0 0 C1.32 0 2.64 0 4 0 C4 14.85 4 29.7 4 45 C0.04 46.98 -3.92 48.96 -8 51 C-11.36905155 52.84548501 -11.36905155 52.84548501 -14.72265625 54.71875 C-17.30226682 56.17005749 -19.89964452 57.58621449 -22.5 59 C-26.5669373 61.21422142 -30.61998225 63.45139804 -34.6640625 65.70703125 C-38.30092235 67.72007575 -41.95943176 69.69319749 -45.6171875 71.66796875 C-48.14596803 73.04084615 -48.14596803 73.04084615 -51 75 C-51.99 75 -52.98 75 -54 75 C-54 75.66 -54 76.32 -54 77 C-56.97 77.495 -56.97 77.495 -60 78 C-60 74 -60 74 -57.6875 71.4375 C-56.800625 70.633125 -55.91375 69.82875 -55 69 C-54.443125 68.401875 -53.88625 67.80375 -53.3125 67.1875 C-52 66 -52 66 -50 66 C-49.773125 65.29875 -49.54625 64.5975 -49.3125 63.875 C-47.66158712 60.25871465 -45.7091165 57.91230024 -43 55 C-42.34 55 -41.68 55 -41 55 C-41 54.34 -41 53.68 -41 53 C-39.68870078 51.64499081 -38.35308313 50.31328657 -37 49 C-36.34 48.01 -35.68 47.02 -35 46 C-34.34 46 -33.68 46 -33 46 C-32.64228516 45.17435547 -32.64228516 45.17435547 -32.27734375 44.33203125 C-30.6963548 41.44563858 -28.70968052 39.18020382 -26.5625 36.6875 C-20.47598772 29.2841942 -18.68683392 23.44225212 -17.8203125 13.98828125 C-16.49959288 9.17708836 -13.28035136 7.74687163 -9.140625 5.33203125 C-8.18671875 4.83058594 -7.2328125 4.32914063 -6.25 3.8125 C-2.91304397 2.20651168 -2.91304397 2.20651168 0 0 Z " fill="#474746" transform="translate(173,59)"/>
<path d="M0 0 C4.04059648 1.01014912 7.4400639 2.57223853 11.125 4.4375 C11.75792969 4.75009766 12.39085937 5.06269531 13.04296875 5.38476562 C15.71045755 6.72417348 17.87547525 7.87547525 20 10 C20.36202349 11.84172269 20.6418982 13.70006422 20.875 15.5625 C22.23148481 24.29617526 25.25901727 30.54755829 30.828125 37.37109375 C32 39 32 39 32 41 C32.59852783 41.26498291 33.19705566 41.52996582 33.8137207 41.80297852 C36.07792427 43.04266473 37.31533598 44.20164678 38.98046875 46.15234375 C39.50447266 46.76400391 40.02847656 47.37566406 40.56835938 48.00585938 C41.10267578 48.64330078 41.63699219 49.28074219 42.1875 49.9375 C42.73341797 50.57107422 43.27933594 51.20464844 43.84179688 51.85742188 C47.8669324 56.60079719 47.8669324 56.60079719 49 60 C49.66 60 50.32 60 51 60 C54 63.46153846 54 63.46153846 54 66 C54.66 66 55.32 66 56 66 C57.7265625 67.86328125 57.7265625 67.86328125 59.625 70.3125 C60.25664063 71.11300781 60.88828125 71.91351563 61.5390625 72.73828125 C63 75 63 75 63 78 C58.36112927 76.62942456 54.38139022 74.65356375 50.25 72.1875 C46.17946382 69.8058033 42.12064949 67.4984949 37.875 65.4375 C34.22389282 63.65951784 30.74013762 61.70158584 27.25 59.625 C21.72905023 56.35517297 16.08933275 53.48133615 10.32421875 50.67578125 C6.81743906 48.90796869 3.40973852 46.94842201 0 45 C0 30.15 0 15.3 0 0 Z " fill="#484848" transform="translate(31,59)"/>
<path d="M0 0 C7.858125 -0.061875 7.858125 -0.061875 15.875 -0.125 C18.32268799 -0.15231201 18.32268799 -0.15231201 20.81982422 -0.18017578 C39.51428998 -0.25118772 39.51428998 -0.25118772 46 3.9375 C49.53961732 7.58773036 50.33169005 9.88326019 50.4375 14.875 C50.36551473 19.12727302 50.27230995 20.6032055 47.8125 24.1875 C45.02291489 25.98523263 43.21176405 26.46560565 40 27 C40.48210937 27.60328125 40.96421875 28.2065625 41.4609375 28.828125 C42.09257812 29.62734375 42.72421875 30.4265625 43.375 31.25 C44.31472656 32.43335937 44.31472656 32.43335937 45.2734375 33.640625 C46.78910737 35.71181189 47.94219634 37.67069497 49 40 C49.66 40 50.32 40 51 40 C51.495 41.98 51.495 41.98 52 44 C47.05 44 42.1 44 37 44 C36.67 43.01 36.34 42.02 36 41 C35.34 41 34.68 41 34 41 C32.70664141 39.2035042 31.44050174 37.38737267 30.1875 35.5625 C27.39076721 31.99803664 25.92703339 30.25358313 21.515625 29.046875 C17.54687491 28.72892331 17.54687491 28.72892331 12 29 C12 33.95 12 38.9 12 44 C8.04 44 4.08 44 0 44 C0 29.48 0 14.96 0 0 Z M12 10 C12 13.3 12 16.6 12 20 C15.79194483 19.85966818 19.58345678 19.71299372 23.375 19.5625 C24.45523437 19.52318359 25.53546875 19.48386719 26.6484375 19.44335938 C28.1953125 19.38051758 28.1953125 19.38051758 29.7734375 19.31640625 C30.72653809 19.27974854 31.67963867 19.24309082 32.66162109 19.20532227 C35.02132349 19.14236535 35.02132349 19.14236535 37 18 C37.16681109 15.08347826 37.16681109 15.08347826 37 12 C35.1923213 9.76868133 35.1923213 9.76868133 32.66162109 9.77294922 C31.23197021 9.78865967 31.23197021 9.78865967 29.7734375 9.8046875 C28.7421875 9.81113281 27.7109375 9.81757812 26.6484375 9.82421875 C25.02808594 9.84935547 25.02808594 9.84935547 23.375 9.875 C21.74304688 9.88853516 21.74304688 9.88853516 20.078125 9.90234375 C17.38532351 9.92596482 14.69263465 9.96183667 12 10 Z " fill="#474746" transform="translate(375,71)"/>
<path d="M0 0 C0.7940625 -0.01417969 1.588125 -0.02835937 2.40625 -0.04296875 C4.5 0.1875 4.5 0.1875 6.5 2.1875 C6.68777386 5.09355993 6.75552545 7.90263111 6.73046875 10.80859375 C6.73001053 11.66429459 6.72955231 12.51999542 6.7290802 13.40162659 C6.72605642 15.21315902 6.71816638 17.02468882 6.70581055 18.83618164 C6.68759663 21.6102825 6.68530057 24.38404882 6.68554688 27.15820312 C6.68063001 28.91666955 6.67480095 30.67513372 6.66796875 32.43359375 C6.66685593 33.26491318 6.6657431 34.0962326 6.66459656 34.95274353 C6.6371927 38.27791019 6.55864283 41.01157151 5.5 44.1875 C3.70841511 44.21446365 1.91671527 44.23387917 0.125 44.25 C-0.87273437 44.26160156 -1.87046875 44.27320313 -2.8984375 44.28515625 C-5.5 44.1875 -5.5 44.1875 -7.5 43.1875 C-7.5 42.5275 -7.5 41.8675 -7.5 41.1875 C-8.82 40.8575 -10.14 40.5275 -11.5 40.1875 C-11.5 39.5275 -11.5 38.8675 -11.5 38.1875 C-12.08571777 37.92396729 -12.67143555 37.66043457 -13.27490234 37.38891602 C-15.59450782 36.13647158 -17.20204631 34.78433426 -19.1015625 32.96484375 C-20.08382813 32.03381836 -20.08382813 32.03381836 -21.0859375 31.08398438 C-21.75882812 30.43751953 -22.43171875 29.79105469 -23.125 29.125 C-24.46941814 27.84041865 -25.81568547 26.55776898 -27.1640625 25.27734375 C-27.75654785 24.70878662 -28.3490332 24.14022949 -28.95947266 23.55444336 C-30.47173979 22.09366037 -30.47173979 22.09366037 -32.5 21.1875 C-32.5 20.5275 -32.5 19.8675 -32.5 19.1875 C-33.49 19.1875 -34.48 19.1875 -35.5 19.1875 C-35.49476318 19.87376465 -35.48952637 20.5600293 -35.48413086 21.26708984 C-35.46339044 24.36555064 -35.45034924 27.46399686 -35.4375 30.5625 C-35.42912109 31.64273438 -35.42074219 32.72296875 -35.41210938 33.8359375 C-35.40888672 34.8671875 -35.40566406 35.8984375 -35.40234375 36.9609375 C-35.39710693 37.91403809 -35.39187012 38.86713867 -35.38647461 39.84912109 C-35.5 42.1875 -35.5 42.1875 -36.5 44.1875 C-38.31242052 44.21437279 -40.12495233 44.23383715 -41.9375 44.25 C-42.94683594 44.26160156 -43.95617187 44.27320313 -44.99609375 44.28515625 C-47.5 44.1875 -47.5 44.1875 -48.5 43.1875 C-48.58874135 40.08498799 -48.61518455 37.0048188 -48.59765625 33.90234375 C-48.5962413 32.97152481 -48.59482635 32.04070587 -48.59336853 31.0816803 C-48.58775172 28.09608809 -48.5751964 25.11056971 -48.5625 22.125 C-48.55748716 20.10612087 -48.55292388 18.08724057 -48.54882812 16.06835938 C-48.53777683 11.10804428 -48.52050095 6.14778468 -48.5 1.1875 C-43.88 1.1875 -39.26 1.1875 -34.5 1.1875 C-34.17 2.1775 -33.84 3.1675 -33.5 4.1875 C-32.84 4.1875 -32.18 4.1875 -31.5 4.1875 C-31.5 4.8475 -31.5 5.5075 -31.5 6.1875 C-30.901875 6.47625 -30.30375 6.765 -29.6875 7.0625 C-27.5 8.1875 -27.5 8.1875 -24.5 10.1875 C-24.5 10.8475 -24.5 11.5075 -24.5 12.1875 C-23.96375 12.414375 -23.4275 12.64125 -22.875 12.875 C-19.67539839 14.64320089 -17.20962777 16.72420203 -14.5 19.1875 C-14.5 19.8475 -14.5 20.5075 -14.5 21.1875 C-13.84 21.1875 -13.18 21.1875 -12.5 21.1875 C-12.5 21.8475 -12.5 22.5075 -12.5 23.1875 C-11.860625 23.496875 -11.22125 23.80625 -10.5625 24.125 C-8.5 25.1875 -8.5 25.1875 -7.5 26.1875 C-7.17 17.9375 -6.84 9.6875 -6.5 1.1875 C-4.14653604 0.01076802 -2.6193967 0.02126134 0 0 Z " fill="#494949" transform="translate(284.5,70.8125)"/>
<path d="M0 0 C0.81409332 -0.00960754 1.62818665 -0.01921509 2.46694946 -0.02911377 C3.33685516 -0.03336365 4.20676086 -0.03761353 5.10302734 -0.04199219 C6.4524794 -0.0505423 6.4524794 -0.0505423 7.82919312 -0.05926514 C9.7270999 -0.06869568 11.62502293 -0.07524137 13.52294922 -0.07910156 C16.4353439 -0.08885506 19.34704676 -0.11991549 22.25927734 -0.15136719 C24.10302315 -0.15789287 25.946774 -0.16314505 27.79052734 -0.16699219 C28.66448151 -0.17933899 29.53843567 -0.19168579 30.43887329 -0.20440674 C32.88671875 -0.1953125 32.88671875 -0.1953125 36.81396484 0.16113281 C38.81396484 3.16113281 38.81396484 3.16113281 38.50146484 6.28613281 C37.81396484 9.16113281 37.81396484 9.16113281 36.81396484 10.16113281 C34.43827965 10.24952952 32.0918781 10.27643586 29.71630859 10.25878906 C28.65302086 10.25666664 28.65302086 10.25666664 27.56825256 10.25450134 C25.29594772 10.24888724 23.02374009 10.23633244 20.75146484 10.22363281 C19.21435689 10.21861963 17.67724739 10.2140564 16.14013672 10.20996094 C12.36470843 10.19891324 8.58935314 10.18163923 4.81396484 10.16113281 C5.14396484 12.47113281 5.47396484 14.78113281 5.81396484 17.16113281 C7.62380859 17.14373047 7.62380859 17.14373047 9.47021484 17.12597656 C11.08479662 17.11658946 12.69938008 17.10749025 14.31396484 17.09863281 C15.10544922 17.09025391 15.89693359 17.081875 16.71240234 17.07324219 C21.84158202 17.05222096 26.7373259 17.42175994 31.81396484 18.16113281 C31.81396484 20.80113281 31.81396484 23.44113281 31.81396484 26.16113281 C18.44896484 26.65613281 18.44896484 26.65613281 4.81396484 27.16113281 C4.81396484 29.47113281 4.81396484 31.78113281 4.81396484 34.16113281 C5.808396 34.18618896 6.80282715 34.21124512 7.82739258 34.23706055 C11.50445232 34.33098163 15.18131634 34.431239 18.8581543 34.53344727 C20.45185785 34.57685427 22.04560965 34.618525 23.6394043 34.65844727 C25.92560392 34.71601089 28.21155934 34.77974431 30.49755859 34.84472656 C31.21423203 34.86143906 31.93090546 34.87815155 32.66929626 34.89537048 C37.70009314 35.04726111 37.70009314 35.04726111 38.81396484 36.16113281 C38.93896484 39.66113281 38.93896484 39.66113281 38.81396484 43.16113281 C37.81396484 44.16113281 37.81396484 44.16113281 35.94737244 44.28138733 C35.13240799 44.27916672 34.31744354 44.27694611 33.4777832 44.2746582 C32.09646461 44.27454491 32.09646461 44.27454491 30.6872406 44.27442932 C29.68620804 44.26926804 28.68517548 44.26410675 27.65380859 44.25878906 C26.63420547 44.25737411 25.61460236 44.25595917 24.56410217 44.25450134 C21.29319377 44.24888378 18.02235271 44.23632831 14.75146484 44.22363281 C12.53987729 44.21862007 10.32828866 44.21405678 8.11669922 44.20996094 C2.68240733 44.19975761 -2.75173814 44.18018567 -8.18603516 44.16113281 C-8.18603516 29.97113281 -8.18603516 15.78113281 -8.18603516 1.16113281 C-5.11867162 0.39429193 -3.05558924 0.02924339 0 0 Z " fill="#494848" transform="translate(319.18603515625,70.8388671875)"/>
<path d="M0 0 C3.34864325 4.09646279 6 8.63305743 6 14 C6.66 14 7.32 14 8 14 C8.495 16.475 8.495 16.475 9 19 C9.66 19 10.32 19 11 19 C11.81752303 20.58074564 12.62881997 22.16471223 13.4375 23.75 C13.88996094 24.63171875 14.34242188 25.5134375 14.80859375 26.421875 C15.83455398 28.64198566 16.51508603 30.61444619 17 33 C17.66 33 18.32 33 19 33 C19.495 35.475 19.495 35.475 20 38 C20.66 38 21.32 38 22 38 C22.495 40.475 22.495 40.475 23 43 C18.38 43 13.76 43 9 43 C5 36.25 5 36.25 5 34 C-8.365 34.495 -8.365 34.495 -22 35 C-22.33 36.32 -22.66 37.64 -23 39 C-24.671875 41.234375 -24.671875 41.234375 -27 43 C-30.015625 43.390625 -30.015625 43.390625 -33.25 43.25 C-34.32765625 43.21390625 -35.4053125 43.1778125 -36.515625 43.140625 C-37.33546875 43.09421875 -38.1553125 43.0478125 -39 43 C-38.25561083 39.8614943 -37.24162641 36.97990339 -36 34 C-35.34 34 -34.68 34 -34 34 C-33.71125 33.278125 -33.4225 32.55625 -33.125 31.8125 C-32.08333333 29.20833333 -31.04166667 26.60416667 -30 24 C-29.34 24 -28.68 24 -28 24 C-27.7525 23.34 -27.505 22.68 -27.25 22 C-25.68182955 18.23639093 -23.85494954 14.6288576 -22 11 C-21.34 11 -20.68 11 -20 11 C-19.67 9.35 -19.34 7.7 -19 6 C-18.34 6 -17.68 6 -17 6 C-16.67 4.35 -16.34 2.7 -16 1 C-10.77870424 -1.33584284 -5.36643573 -2.24904022 0 0 Z M-9 12 C-9.83848804 13.45537568 -10.67063934 14.91440373 -11.5 16.375 C-11.9640625 17.18710938 -12.428125 17.99921875 -12.90625 18.8359375 C-14.15035859 20.89336874 -14.15035859 20.89336874 -14 23 C-14.66 23 -15.32 23 -16 23 C-16 23.66 -16 24.32 -16 25 C-11.05 25 -6.1 25 -1 25 C-1.763125 23.411875 -2.52625 21.82375 -3.3125 20.1875 C-3.74175781 19.29417969 -4.17101562 18.40085937 -4.61328125 17.48046875 C-5.88221789 15.21068067 -7.06556898 13.70751829 -9 12 Z " fill="#4A4949" transform="translate(532,72)"/>
<path d="M0 0 C1.74991334 -0.02715383 3.49994945 -0.04646551 5.25 -0.0625 C6.71179688 -0.07990234 6.71179688 -0.07990234 8.203125 -0.09765625 C10.6867294 -0.01093822 12.67592576 0.13707494 15 1 C16.68842953 4.19912963 17.39159077 7.45094618 18 11 C18.66 11 19.32 11 20 11 C20.30292969 11.6290625 20.60585938 12.258125 20.91796875 12.90625 C24.98219764 22.72634294 24.98219764 22.72634294 32 30 C33.07525194 27.34771188 34.09456151 24.71631546 35 22 C35.66 22 36.32 22 37 22 C37.24492187 21.34515625 37.48984375 20.6903125 37.7421875 20.015625 C39.35363787 16.15214771 41.17939782 12.45463977 43.125 8.75 C43.47820312 8.0178125 43.83140625 7.285625 44.1953125 6.53125 C46.94218096 1.38087164 46.94218096 1.38087164 50.00097656 0.27954102 C53.45939429 -0.1895236 56.70933153 -0.23400068 60 1 C59.53307634 6.58579041 57.38626062 10.07923398 54.375 14.625 C53.4608455 16.04467621 52.54809488 17.46525734 51.63671875 18.88671875 C51.18731934 19.5832959 50.73791992 20.27987305 50.27490234 20.99755859 C45.52185476 28.46299258 41.26352625 36.24813409 37 44 C32.38 44 27.76 44 23 44 C23 43.34 23 42.68 23 42 C22.34 42 21.68 42 21 42 C20.56409546 41.09338623 20.56409546 41.09338623 20.11938477 40.16845703 C17.03354844 33.86074278 13.61182321 27.85559652 9.9375 21.875 C0 5.67228464 0 5.67228464 0 0 Z " fill="#474747" transform="translate(436,71)"/>
<path d="M0 0 C0.680625 -0.00257812 1.36125 -0.00515625 2.0625 -0.0078125 C4 0.125 4 0.125 7 1.125 C7 15.315 7 29.505 7 44.125 C2.71 44.125 -1.58 44.125 -6 44.125 C-7 43.125 -7 43.125 -7.11352539 39.15600586 C-7.1133662 37.38394393 -7.10766785 35.6118774 -7.09765625 33.83984375 C-7.0962413 32.90902481 -7.09482635 31.97820587 -7.09336853 31.0191803 C-7.08775172 28.03358809 -7.0751964 25.04806971 -7.0625 22.0625 C-7.05748716 20.04362087 -7.05292388 18.02474057 -7.04882812 16.00585938 C-7.03777683 11.04554428 -7.02050095 6.08528468 -7 1.125 C-4.32356043 0.23285348 -2.74615622 -0.01040211 0 0 Z " fill="#494748" transform="translate(209,70.875)"/>
<path d="M0 0 C1.45792884 -0.05399736 2.91642712 -0.09279177 4.375 -0.125 C5.18710937 -0.14820312 5.99921875 -0.17140625 6.8359375 -0.1953125 C9 0 9 0 11 2 C11.18777386 4.90605993 11.25552545 7.71513111 11.23046875 10.62109375 C11.22978142 11.904645 11.22978142 11.904645 11.2290802 13.21412659 C11.22605642 15.02565902 11.21816638 16.83718882 11.20581055 18.64868164 C11.18759663 21.4227825 11.18530057 24.19654882 11.18554688 26.97070312 C11.18063001 28.72916955 11.17480095 30.48763372 11.16796875 32.24609375 C11.16685593 33.07741318 11.1657431 33.9087326 11.16459656 34.76524353 C11.1371927 38.09041019 11.05864283 40.82407151 10 44 C8.20841511 44.02696365 6.41671527 44.04637917 4.625 44.0625 C3.62726563 44.07410156 2.62953125 44.08570313 1.6015625 44.09765625 C-1 44 -1 44 -3 43 C-3 42.34 -3 41.68 -3 41 C-4.32 40.67 -5.64 40.34 -7 40 C-7 39.34 -7 38.68 -7 38 C-7.598125 37.7525 -8.19625 37.505 -8.8125 37.25 C-11.28647521 35.83629988 -12.43370255 34.34944617 -14 32 C-12.68 32.33 -11.36 32.66 -10 33 C-10 32.34 -10 31.68 -10 31 C-10.99 30.67 -11.98 30.34 -13 30 C-11.68 29.34 -10.36 28.68 -9 28 C-8.67 28.66 -8.34 29.32 -8 30 C-7.443125 29.79375 -6.88625 29.5875 -6.3125 29.375 C-3.34160702 28.89323357 -1.71707996 29.81944453 1 31 C1.02473868 27.06731133 1.04287835 23.13465287 1.05493164 19.2019043 C1.06242729 17.20685232 1.07513345 15.21182214 1.08789062 13.21679688 C1.09111328 11.96318359 1.09433594 10.70957031 1.09765625 9.41796875 C1.10289307 8.26063232 1.10812988 7.1032959 1.11352539 5.91088867 C1.13299461 2.93395589 1.13299461 2.93395589 0 0 Z " fill="#464746" transform="translate(280,71)"/>
<path d="M0 0 C0.33 0.99 0.66 1.98 1 3 C2.216875 2.95875 3.43375 2.9175 4.6875 2.875 C8.21894127 2.86245492 10.80003566 3.40001783 14 5 C13.34644531 5.35835938 12.69289063 5.71671875 12.01953125 6.0859375 C9.68436404 7.89949333 9.68436404 7.89949333 9.57421875 11.1015625 C9.61160156 12.26429687 9.64898437 13.42703125 9.6875 14.625 C9.71199219 15.79289062 9.73648437 16.96078125 9.76171875 18.1640625 C9.68433854 20.89947854 9.68433854 20.89947854 11 22 C13.34987262 22.23527773 15.70556039 22.41386417 18.0625 22.5625 C19.35285156 22.64628906 20.64320313 22.73007813 21.97265625 22.81640625 C23.47119141 22.90728516 23.47119141 22.90728516 25 23 C25.33 23.99 25.66 24.98 26 26 C20.72 26 15.44 26 10 26 C9.67 31.28 9.34 36.56 9 42 C7.02 42 5.04 42 3 42 C3 42.66 3 43.32 3 44 C2.01 44 1.02 44 0 44 C0 29.48 0 14.96 0 0 Z " fill="#464645" transform="translate(375,71)"/>
<path d="M0 0 C0.99 0 1.98 0 3 0 C3 13.2 3 26.4 3 40 C5.475 39.505 5.475 39.505 8 39 C10.80114592 38.98428208 13.5665885 39.021824 16.36328125 39.12109375 C17.55125557 39.15651024 17.55125557 39.15651024 18.76322937 39.19264221 C21.27985281 39.26889694 23.79613841 39.35308416 26.3125 39.4375 C28.0240723 39.49075899 29.73566083 39.5434991 31.44726562 39.59570312 C35.63172224 39.72446001 39.81589403 39.86032922 44 40 C44 38.68 44 37.36 44 36 C43.01 36.33 42.02 36.66 41 37 C38.81282368 37.09525873 36.62284251 37.13073132 34.43359375 37.1328125 C33.14388672 37.13410156 31.85417969 37.13539062 30.52539062 37.13671875 C29.51955933 37.13357666 29.51955933 37.13357666 28.4934082 37.13037109 C26.4414941 37.12501043 24.38979801 37.13032881 22.33789062 37.13671875 C20.40526367 37.13478516 20.40526367 37.13478516 18.43359375 37.1328125 C17.24822021 37.13168457 16.06284668 37.13055664 14.84155273 37.12939453 C12 37 12 37 10 36 C10 35.01 10 34.02 10 33 C15.10863896 32.9753499 20.21724359 32.95716393 25.32592773 32.94506836 C27.06519168 32.94002796 28.80445136 32.9331957 30.54370117 32.92456055 C33.03825937 32.91248208 35.53276173 32.90676892 38.02734375 32.90234375 C38.80963852 32.89718246 39.59193329 32.89202118 40.39793396 32.88670349 C42.26567114 32.88650774 44.13329204 32.93800306 46 33 C47 34 47 34 47.125 37.5 C47 41 47 41 46 42 C44.55710213 42.09295815 43.10970215 42.11746513 41.66381836 42.11352539 C40.28249977 42.11341209 40.28249977 42.11341209 38.87327576 42.11329651 C37.87224319 42.10813522 36.87121063 42.10297394 35.83984375 42.09765625 C34.82024063 42.0962413 33.80063751 42.09482635 32.75013733 42.09336853 C29.47922893 42.08775097 26.20838787 42.0751955 22.9375 42.0625 C20.72591244 42.05748726 18.51432382 42.05292396 16.30273438 42.04882812 C10.86844248 42.0386248 5.43429702 42.01905285 0 42 C0 28.14 0 14.28 0 0 Z " fill="#5F5F5F" transform="translate(311,73)"/>
<path d="M0 0 C8.58 0 17.16 0 26 0 C26 0.66 26 1.32 26 2 C29.3 2 32.6 2 36 2 C36 2.33 36 2.66 36 3 C28.08 3.495 28.08 3.495 20 4 C20 4.66 20 5.32 20 6 C24.95 6.33 29.9 6.66 35 7 C35 7.66 35 8.32 35 9 C32.49502996 10.25248502 30.79146726 10.11374406 27.9921875 10.09765625 C27.00605469 10.09443359 26.01992188 10.09121094 25.00390625 10.08789062 C23.97136719 10.07951172 22.93882812 10.07113281 21.875 10.0625 C20.31458984 10.05573242 20.31458984 10.05573242 18.72265625 10.04882812 C16.14838038 10.03701952 13.57421854 10.02055075 11 10 C11.33 12.97 11.66 15.94 12 19 C19.92 18.67 27.84 18.34 36 18 C36.33 15.69 36.66 13.38 37 11 C37.66 11.33 38.32 11.66 39 12 C39.20098072 15.61765288 39.03684518 17.96030444 37 21 C28.63230754 24.45799376 17.89689183 23.18774215 9 23 C7.58657006 20.17314012 7.75422634 17.71268563 7.6875 14.5625 C7.63142578 12.83193359 7.63142578 12.83193359 7.57421875 11.06640625 C7.71472656 10.05449219 7.85523438 9.04257813 8 8 C9.32 7.01 10.64 6.02 12 5 C6.06 4.01 6.06 4.01 0 3 C0 2.01 0 1.02 0 0 Z " fill="#545453" transform="translate(376,71)"/>
<path d="M0 0 C0.66 0.33 1.32 0.66 2 1 C1.3125 2.9375 1.3125 2.9375 0 5 C-2.58203125 5.62890625 -2.58203125 5.62890625 -5 6 C-4.51789063 6.60328125 -4.03578125 7.2065625 -3.5390625 7.828125 C-2.90742188 8.62734375 -2.27578125 9.4265625 -1.625 10.25 C-0.99851562 11.03890625 -0.37203125 11.8278125 0.2734375 12.640625 C1.78910737 14.71181189 2.94219634 16.67069497 4 19 C4.66 19 5.32 19 6 19 C6.495 20.98 6.495 20.98 7 23 C2.05 23 -2.9 23 -8 23 C-8.495 21.515 -8.495 21.515 -9 20 C-9.66 20 -10.32 20 -11 20 C-12.29335859 18.2035042 -13.55949826 16.38737267 -14.8125 14.5625 C-17.60923279 10.99803664 -19.07296661 9.25358313 -23.484375 8.046875 C-27.45312509 7.72892331 -27.45312509 7.72892331 -33 8 C-33 12.95 -33 17.9 -33 23 C-35.97 23 -38.94 23 -42 23 C-42 22.01 -42 21.02 -42 20 C-40.02 20.33 -38.04 20.66 -36 21 C-36.01160156 20.01257813 -36.02320313 19.02515625 -36.03515625 18.0078125 C-36.04417969 16.72648437 -36.05320312 15.44515625 -36.0625 14.125 C-36.07410156 12.84882812 -36.08570313 11.57265625 -36.09765625 10.2578125 C-36 7 -36 7 -35 5 C-20.72166772 3.93166873 -20.72166772 3.93166873 -16.6015625 6.48828125 C-14.53686985 8.92058991 -13 10.74138537 -13 14 C-12.34 14 -11.68 14 -11 14 C-10.34 14.66 -9.68 15.32 -9 16 C-7.02 15.34 -5.04 14.68 -3 14 C-5.31 12.02 -7.62 10.04 -10 8 C-8.8125 5.5625 -8.8125 5.5625 -7 3 C-4.53160607 2.21733851 -2.57174634 2 0 2 C0 1.34 0 0.68 0 0 Z " fill="#4A4A4A" transform="translate(420,92)"/>
<path d="M0 0 C1.74991334 -0.02715383 3.49994945 -0.04646551 5.25 -0.0625 C6.71179688 -0.07990234 6.71179688 -0.07990234 8.203125 -0.09765625 C10.69076739 -0.01079723 12.67830451 0.11680377 15 1 C16.1875 3.5 16.1875 3.5 17 6 C17.33 6.33 17.66 6.66 18 7 C17.71269945 9.33944736 17.38063221 11.6739143 17 14 C14 13 14 13 12 11 C9.90708843 11.08571661 9.90708843 11.08571661 8 12 C7.67 12.99 7.34 13.98 7 15 C4.69145075 12.87666387 3.21587424 10.86387158 1.8125 8.0625 C1.29623047 7.05896484 1.29623047 7.05896484 0.76953125 6.03515625 C0 4 0 4 0 0 Z " fill="#484846" transform="translate(436,71)"/>
<path d="M0 0 C1.4540625 0.0309375 1.4540625 0.0309375 2.9375 0.0625 C2.9375 0.7225 2.9375 1.3825 2.9375 2.0625 C1.9475 2.3925 0.9575 2.7225 -0.0625 3.0625 C-0.0625 6.0325 -0.0625 9.0025 -0.0625 12.0625 C7.8575 11.7325 15.7775 11.4025 23.9375 11.0625 C24.2675 8.7525 24.5975 6.4425 24.9375 4.0625 C25.5975 4.3925 26.2575 4.7225 26.9375 5.0625 C27.13848072 8.68015288 26.97434518 11.02280444 24.9375 14.0625 C16.56980754 17.52049376 5.83439183 16.25024215 -3.0625 16.0625 C-4.49566898 13.19616205 -4.19450361 10.69014499 -4.1875 7.5 C-4.19007813 6.32308594 -4.19265625 5.14617187 -4.1953125 3.93359375 C-4.01178604 -0.03381655 -4.00263868 0.0816865 0 0 Z " fill="#5D5D5B" transform="translate(388.0625,77.9375)"/>
<path d="M0 0 C2.97 0.33 5.94 0.66 9 1 C9 15.19 9 29.38 9 44 C8.34 44 7.68 44 7 44 C5.33422375 40.66844749 5.87992144 36.93463941 5.90234375 33.2734375 C5.9037587 32.41062164 5.90517365 31.54780579 5.90663147 30.65884399 C5.91223812 27.8975277 5.92479173 25.13629188 5.9375 22.375 C5.94251414 20.5052095 5.9470772 18.63541774 5.95117188 16.765625 C5.96220971 12.17705223 5.9794788 7.58853977 6 3 C3.36 3 0.72 3 -2 3 C-1.34 2.67 -0.68 2.34 0 2 C0 1.34 0 0.68 0 0 Z " fill="#737373" transform="translate(207,71)"/>
<path d="M0 0 C0.99 0 1.98 0 3 0 C3 13.2 3 26.4 3 40 C5.475 39.505 5.475 39.505 8 39 C10.8125 39.4375 10.8125 39.4375 13 40 C12.67 40.66 12.34 41.32 12 42 C8.04 42 4.08 42 0 42 C0 28.14 0 14.28 0 0 Z " fill="#676767" transform="translate(311,73)"/>
<path d="M0 0 C1.32 0 2.64 0 4 0 C4 14.19 4 28.38 4 43 C3.01 43 2.02 43 1 43 C0.85710554 37.35832905 0.71470156 31.71664602 0.57275391 26.07495117 C0.52438655 24.15535141 0.4758847 22.23575502 0.42724609 20.31616211 C0.35739425 17.55843976 0.28802463 14.80070565 0.21875 12.04296875 C0.19687622 11.18350143 0.17500244 10.32403412 0.15246582 9.43852234 C0.13244507 8.63791885 0.11242432 7.83731537 0.09179688 7.01245117 C0.07403198 6.3085173 0.05626709 5.60458344 0.03796387 4.87931824 C0.00511408 3.25316136 0 1.62648864 0 0 Z " fill="#605F5F" transform="translate(173,59)"/>
<path d="M0 0 C0.66 0.33 1.32 0.66 2 1 C1.67 2.32 1.34 3.64 1 5 C2.32 4.67 3.64 4.34 5 4 C5 4.66 5 5.32 5 6 C5.66 6.33 6.32 6.66 7 7 C3.62546316 10.67229009 0.62544907 13.08948843 -4 15 C-4.99 15 -5.98 15 -7 15 C-7 15.66 -7 16.32 -7 17 C-8.98 17.33 -10.96 17.66 -13 18 C-13 14 -13 14 -10.6875 11.4375 C-9.800625 10.633125 -8.91375 9.82875 -8 9 C-7.1646875 8.1028125 -7.1646875 8.1028125 -6.3125 7.1875 C-5 6 -5 6 -3 6 C-2.690625 5.195625 -2.38125 4.39125 -2.0625 3.5625 C-1 1 -1 1 0 0 Z " fill="#4D4A4A" transform="translate(126,119)"/>
<path d="M0 0 C0.33 0 0.66 0 1 0 C1 12.21 1 24.42 1 37 C3.97 37 6.94 37 10 37 C10 37.66 10 38.32 10 39 C8.18757948 39.02687279 6.37504767 39.04633715 4.5625 39.0625 C3.55316406 39.07410156 2.54382813 39.08570313 1.50390625 39.09765625 C-1 39 -1 39 -2 38 C-2.21963438 33.53090187 -2.18578866 29.05623185 -2.18530273 24.58227539 C-2.18747419 22.33915816 -2.20558181 20.09654474 -2.22460938 17.85351562 C-2.22754632 16.41927251 -2.2295291 14.98502706 -2.23046875 13.55078125 C-2.23457764 12.24794189 -2.23868652 10.94510254 -2.24291992 9.6027832 C-2.00390375 6.05789717 -1.28511892 3.29636028 0 0 Z " fill="#585757" transform="translate(204,76)"/>
<path d="M0 0 C0.66 0 1.32 0 2 0 C2 13.53 2 27.06 2 41 C1.01 41 0.02 41 -1 41 C-1.02473982 35.80387722 -1.04287892 30.60778882 -1.05493164 25.41162109 C-1.05995687 23.64436241 -1.06677809 21.87710788 -1.07543945 20.10986328 C-1.08758428 17.56802343 -1.09324645 15.0262386 -1.09765625 12.484375 C-1.10281754 11.69569031 -1.10797882 10.90700562 -1.11329651 10.09442139 C-1.11365758 6.55463597 -0.95395888 3.40499206 0 0 Z " fill="#6C6C6C" transform="translate(237,73)"/>
<path d="M0 0 C5.28 0 10.56 0 16 0 C16 1.32 16 2.64 16 4 C9.07 3.505 9.07 3.505 2 3 C2 7.95 2 12.9 2 18 C-0.97 18 -3.94 18 -7 18 C-7 17.01 -7 16.02 -7 15 C-4.03 15.495 -4.03 15.495 -1 16 C-1.01160156 15.01257813 -1.02320313 14.02515625 -1.03515625 13.0078125 C-1.04417969 11.72648437 -1.05320312 10.44515625 -1.0625 9.125 C-1.07410156 7.84882812 -1.08570313 6.57265625 -1.09765625 5.2578125 C-1 2 -1 2 0 0 Z " fill="#595957" transform="translate(385,97)"/>
<path d="M0 0 C0.66 0.33 1.32 0.66 2 1 C0.95835936 2.99022404 -0.1091015 4.96695093 -1.1875 6.9375 C-1.77917969 8.03964844 -2.37085938 9.14179687 -2.98046875 10.27734375 C-5 13 -5 13 -7.73828125 13.87890625 C-8.48464844 13.91886719 -9.23101562 13.95882812 -10 14 C-10.33 14.99 -10.66 15.98 -11 17 C-12.32 16.34 -13.64 15.68 -15 15 C-14.01 14.67 -13.02 14.34 -12 14 C-12.66 12.35 -13.32 10.7 -14 9 C-13.34 9 -12.68 9 -12 9 C-11.9175 8.236875 -11.835 7.47375 -11.75 6.6875 C-10.85384206 3.47626739 -9.78388975 2.70625501 -7 1 C-5 3 -5 3 -5 6 C-2.94729537 4.15811388 -2.94729537 4.15811388 -2 2 C-1.34 1.34 -0.68 0.68 0 0 Z " fill="#464546" transform="translate(483,93)"/>
<path d="M0 0 C3.24838923 1.08279641 4.04282583 1.89036845 6.1875 4.4375 C6.71730469 5.05496094 7.24710938 5.67242187 7.79296875 6.30859375 C9 8 9 8 9 10 C9.66 10 10.32 10 11 10 C14 13.46153846 14 13.46153846 14 16 C14.66 16 15.32 16 16 16 C17.7265625 17.86328125 17.7265625 17.86328125 19.625 20.3125 C20.25664063 21.11300781 20.88828125 21.91351563 21.5390625 22.73828125 C23 25 23 25 23 28 C19.08788267 26.84414715 16.1254959 25.64465038 13 23 C13.33 22.34 13.66 21.68 14 21 C14.66 21.33 15.32 21.66 16 22 C15.566875 21.51789063 15.13375 21.03578125 14.6875 20.5390625 C14.130625 19.90742188 13.57375 19.27578125 13 18.625 C12.1646875 17.68527344 12.1646875 17.68527344 11.3125 16.7265625 C10 15 10 15 10 13 C9.34 13 8.68 13 8 13 C6.0546875 10.91796875 6.0546875 10.91796875 3.875 8.1875 C3.15054688 7.29417969 2.42609375 6.40085937 1.6796875 5.48046875 C0 3 0 3 0 0 Z " fill="#585756" transform="translate(71,109)"/>
<path d="M0 0 C0.66 0.33 1.32 0.66 2 1 C1.3125 2.9375 1.3125 2.9375 0 5 C-2.58203125 5.62890625 -2.58203125 5.62890625 -5 6 C-4.51789063 6.60328125 -4.03578125 7.2065625 -3.5390625 7.828125 C-2.90742188 8.62734375 -2.27578125 9.4265625 -1.625 10.25 C-0.99851562 11.03890625 -0.37203125 11.8278125 0.2734375 12.640625 C1.78910737 14.71181189 2.94219634 16.67069497 4 19 C4.66 19 5.32 19 6 19 C6.33 20.32 6.66 21.64 7 23 C-0.42857143 23.28571429 -0.42857143 23.28571429 -4 21 C-2.02 21 -0.04 21 2 21 C2 20.01 2 19.02 2 18 C1.34 18 0.68 18 0 18 C0 17.34 0 16.68 0 16 C-0.66 16 -1.32 16 -2 16 C-3.27400375 14.52999567 -4.5435008 13.05484219 -5.7578125 11.53515625 C-7.07336124 9.90933658 -8.48213245 8.43797979 -10 7 C-8.375 4.5 -8.375 4.5 -6 2 C-2.75 1.6875 -2.75 1.6875 0 2 C0 1.34 0 0.68 0 0 Z " fill="#565656" transform="translate(420,92)"/>
<path d="M0 0 C0.99 0.66 1.98 1.32 3 2 C1.625 4.5 1.625 4.5 0 7 C-0.66 7 -1.32 7 -2 7 C-2 7.66 -2 8.32 -2 9 C3.94 9 9.88 9 16 9 C16.66 10.32 17.32 11.64 18 13 C10.41 13 2.82 13 -5 13 C-5 11.68 -5 10.36 -5 9 C-5.99 8.34 -6.98 7.68 -8 7 C-6.35 6.67 -4.7 6.34 -3 6 C-2.67 4.68 -2.34 3.36 -2 2 C-1.34 2 -0.68 2 0 2 C0 1.34 0 0.68 0 0 Z " fill="#575656" transform="translate(518,88)"/>
<path d="M0 0 C3.3 0.33 6.6 0.66 10 1 C10 1.33 10 1.66 10 2 C7.69 2 5.38 2 3 2 C3 11.24 3 20.48 3 30 C1.35 29.67 -0.3 29.34 -2 29 C-2.33 28.01 -2.66 27.02 -3 26 C-2.01 26 -1.02 26 0 26 C0 17.42 0 8.84 0 0 Z " fill="#545453" transform="translate(278,72)"/>
<path d="M0 0 C11.22 0 22.44 0 34 0 C34 0.99 34 1.98 34 3 C29.80078534 3.02476851 25.60160971 3.04289246 21.40234375 3.05493164 C19.97460184 3.05995206 18.54686504 3.06676972 17.11914062 3.07543945 C15.06378921 3.08760553 13.00850593 3.09325128 10.953125 3.09765625 C9.09929199 3.10551147 9.09929199 3.10551147 7.20800781 3.11352539 C4.5854329 3.02071737 2.48355406 2.78356673 0 2 C0 1.34 0 0.68 0 0 Z " fill="#626261" transform="translate(322,78)"/>
<path d="M0 0 C0.99 -0.33 1.98 -0.66 3 -1 C2.34 0.32 1.68 1.64 1 3 C0.22285645 3.01458252 -0.55428711 3.02916504 -1.35498047 3.04418945 C-4.86216688 3.11846978 -8.3683801 3.21519589 -11.875 3.3125 C-13.09832031 3.33505859 -14.32164062 3.35761719 -15.58203125 3.38085938 C-17.33193359 3.4340332 -17.33193359 3.4340332 -19.1171875 3.48828125 C-20.19597168 3.51446533 -21.27475586 3.54064941 -22.38623047 3.56762695 C-23.24877441 3.71031006 -24.11131836 3.85299316 -25 4 C-25.99 5.485 -25.99 5.485 -27 7 C-27.66 7 -28.32 7 -29 7 C-29.042721 5.33388095 -29.04063832 3.66617115 -29 2 C-26.34489926 -0.65510074 -19.22010641 0.15611515 -15.625 -0.125 C-13.88089844 -0.27388672 -13.88089844 -0.27388672 -12.1015625 -0.42578125 C-10.9878125 -0.51472656 -9.8740625 -0.60367188 -8.7265625 -0.6953125 C-7.18863037 -0.8193042 -7.18863037 -0.8193042 -5.61962891 -0.94580078 C-3 -1 -3 -1 0 0 Z " fill="#575657" transform="translate(535,103)"/>
<path d="M0 0 C0.66 0.33 1.32 0.66 2 1 C2 2.65 2 4.3 2 6 C3.32 4.68 4.64 3.36 6 2 C6.99 2.33 7.98 2.66 9 3 C9 3.66 9 4.32 9 5 C8.01 5.495 8.01 5.495 7 6 C8.32 6.33 9.64 6.66 11 7 C10.67 5.68 10.34 4.36 10 3 C10.99 2.67 11.98 2.34 13 2 C13 2.99 13 3.98 13 5 C13.66 5 14.32 5 15 5 C15.33 6.65 15.66 8.3 16 10 C13.73020335 10.10794277 11.45894804 10.18556176 9.1875 10.25 C7.92292969 10.29640625 6.65835938 10.3428125 5.35546875 10.390625 C2 10 2 10 0.03125 8.1875 C-1.39049076 5.17168627 -0.79179136 3.16716546 0 0 Z " fill="#4E4E4E" transform="translate(539,105)"/>
<path d="M0 0 C0.90105469 0.11085938 1.80210937 0.22171875 2.73046875 0.3359375 C3.76107422 0.47902344 3.76107422 0.47902344 4.8125 0.625 C5.4725 2.275 6.1325 3.925 6.8125 5.625 C5.8225 6.615 4.8325 7.605 3.8125 8.625 C4.4725 8.955 5.1325 9.285 5.8125 9.625 C5.8125 10.285 5.8125 10.945 5.8125 11.625 C6.4725 11.625 7.1325 11.625 7.8125 11.625 C7.4825 12.285 7.1525 12.945 6.8125 13.625 C3.67900268 14.66949911 2.82281744 14.55923645 -0.1875 13.625 C-0.5175 11.975 -0.8475 10.325 -1.1875 8.625 C-0.548125 8.398125 0.09125 8.17125 0.75 7.9375 C3.08443661 6.77249104 3.08443661 6.77249104 3.5625 4 C3.645 3.21625 3.7275 2.4325 3.8125 1.625 C2.8225 1.955 1.8325 2.285 0.8125 2.625 C-1.44921875 2.50390625 -1.44921875 2.50390625 -3.875 2.1875 C-5.08736328 2.03474609 -5.08736328 2.03474609 -6.32421875 1.87890625 C-6.93910156 1.79511719 -7.55398438 1.71132812 -8.1875 1.625 C-4.73535147 -0.67643236 -3.95270676 -0.51333854 0 0 Z M-4.1875 11.625 C-2.2075 12.615 -2.2075 12.615 -0.1875 13.625 C-1.1775 13.955 -2.1675 14.285 -3.1875 14.625 C-3.5175 13.635 -3.8475 12.645 -4.1875 11.625 Z " fill="#434343" transform="translate(527.1875,71.375)"/>
<path d="M0 0 C0.33 0.66 0.66 1.32 1 2 C3.02463255 2.65213292 3.02463255 2.65213292 5 3 C4.34 3 3.68 3 3 3 C3.33 5.31 3.66 7.62 4 10 C10.93 10.495 10.93 10.495 18 11 C17.67 11.99 17.34 12.98 17 14 C16.22914063 13.91621094 15.45828125 13.83242187 14.6640625 13.74609375 C13.66117187 13.64425781 12.65828125 13.54242188 11.625 13.4375 C10.62726563 13.33308594 9.62953125 13.22867188 8.6015625 13.12109375 C6.015963 12.78855292 6.015963 12.78855292 4 14 C3.67 14.66 3.34 15.32 3 16 C0.3902887 14.07108295 -0.01721335 12.92397435 -0.75 9.6875 C-0.98572182 6.21060315 -0.74395793 3.38914169 0 0 Z " fill="#535252" transform="translate(321,78)"/>
<path d="M0 0 C0.66 0.33 1.32 0.66 2 1 C2.2006765 4.61217708 2.07112103 6.98296399 0 10 C-6.31703755 12.28925121 -13.36132771 12.21766139 -20 12 C-20 11.67 -20 11.34 -20 11 C-16.535 10.505 -16.535 10.505 -13 10 C-15.97 9.505 -15.97 9.505 -19 9 C-19 8.67 -19 8.34 -19 8 C-13.06 7.67 -7.12 7.34 -1 7 C-0.67 4.69 -0.34 2.38 0 0 Z " fill="#595959" transform="translate(413,82)"/>
<path d="M0 0 C1.32 1.32 2.64 2.64 4 4 C1.94909081 5.0254546 -0.03531371 6.01311652 -2.1875 6.8125 C-4.28138154 7.90210663 -4.28138154 7.90210663 -4.75 10.625 C-4.8325 11.40875 -4.915 12.1925 -5 13 C-5.99 12.67 -6.98 12.34 -8 12 C-8.3125 9.25 -8.3125 9.25 -8 6 C-5.6875 3.75 -5.6875 3.75 -3 2 C-2.01 1.34 -1.02 0.68 0 0 Z " fill="#4F4F4E" transform="translate(164,64)"/>
<path d="M0 0 C-0.34644478 8.10680787 -0.34644478 8.10680787 -2.875 11.5625 C-5 13 -5 13 -8 13 C-8 13.66 -8 14.32 -8 15 C-8.99 14.67 -9.98 14.34 -11 14 C-10.67 12.68 -10.34 11.36 -10 10 C-9.34 10 -8.68 10 -8 10 C-7.67 9.34 -7.34 8.68 -7 8 C-6.01 8.33 -5.02 8.66 -4 9 C-3.87625 7.700625 -3.7525 6.40125 -3.625 5.0625 C-3.4140625 2.84765625 -3.4140625 2.84765625 -3 1 C-1 0 -1 0 0 0 Z " fill="#585758" transform="translate(180,43)"/>
<path d="M0 0 C2.375 0.1875 2.375 0.1875 5 1 C6.25 3.5 6.25 3.5 7 6 C7.33 6.33 7.66 6.66 8 7 C7.71269945 9.33944736 7.38063221 11.6739143 7 14 C6.01 13.67 5.02 13.34 4 13 C3 10 3 10 3 7 C2.67 5.68 2.34 4.36 2 3 C-0.97 3 -3.94 3 -7 3 C-7 2.67 -7 2.34 -7 2 C-4.69 2 -2.38 2 0 2 C0 1.34 0 0.68 0 0 Z " fill="#4D4D4D" transform="translate(446,71)"/>
<path d="M0 0 C4.62 0 9.24 0 14 0 C14.33 0.99 14.66 1.98 15 3 C15.66 3 16.32 3 17 3 C17 3.66 17 4.32 17 5 C17.99 5.33 18.98 5.66 20 6 C20 6.99 20 7.98 20 9 C19.34 9 18.68 9 18 9 C18 8.34 18 7.68 18 7 C17.01 6.67 16.02 6.34 15 6 C15 5.34 15 4.68 15 4 C14.15695313 3.86722656 13.31390625 3.73445313 12.4453125 3.59765625 C11.34960938 3.42105469 10.25390625 3.24445313 9.125 3.0625 C7.48917969 2.80146484 7.48917969 2.80146484 5.8203125 2.53515625 C3 2 3 2 1 1 C0.67 2.32 0.34 3.64 0 5 C0 3.35 0 1.7 0 0 Z " fill="#5A5A59" transform="translate(236,72)"/>
<path d="M0 0 C2.67578125 1.53125 2.67578125 1.53125 5.3125 3.5 C6.19550781 4.1496875 7.07851562 4.799375 7.98828125 5.46875 C8.65214844 5.9740625 9.31601563 6.479375 10 7 C9.67 7.66 9.34 8.32 9 9 C8.48050781 8.72285156 7.96101563 8.44570312 7.42578125 8.16015625 C2.97827792 5.83873584 2.97827792 5.83873584 -1.8125 4.4375 C-4.41223657 3.91755269 -5.3372855 3.01275966 -7 1 C-4.40088459 -0.2995577 -2.89493234 -0.30077219 0 0 Z " fill="#52524B" transform="translate(92,67)"/>
<path d="M0 0 C3.3 0.33 6.6 0.66 10 1 C10 3.64 10 6.28 10 9 C8.68 8.67 7.36 8.34 6 8 C6.33 7.34 6.66 6.68 7 6 C4.22739701 4.06201737 4.22739701 4.06201737 2 3 C1.67 3.66 1.34 4.32 1 5 C1 4.34 1 3.68 1 3 C0.34 3 -0.32 3 -1 3 C-0.67 2.01 -0.34 1.02 0 0 Z " fill="#535251" transform="translate(341,88)"/>
<path d="M0 0 C3.12482562 -0.08687496 6.24934246 -0.14034568 9.375 -0.1875 C10.70917969 -0.22520508 10.70917969 -0.22520508 12.0703125 -0.26367188 C13.34648437 -0.27817383 13.34648437 -0.27817383 14.6484375 -0.29296875 C15.82672119 -0.31653442 15.82672119 -0.31653442 17.02880859 -0.34057617 C17.67930176 -0.22818604 18.32979492 -0.1157959 19 0 C21 3 21 3 20.625 6.1875 C20.315625 7.5796875 20.315625 7.5796875 20 9 C19.67 8.34 19.34 7.68 19 7 C16.97536745 6.34786708 16.97536745 6.34786708 15 6 C15.33 5.01 15.66 4.02 16 3 C10.72 2.34 5.44 1.68 0 1 C0 0.67 0 0.34 0 0 Z " fill="#343434" transform="translate(337,71)"/>
<path d="M0 0 C0.33 0 0.66 0 1 0 C1 12.21 1 24.42 1 37 C1.66 37 2.32 37 3 37 C3 38.32 3 39.64 3 41 C2.34 41 1.68 41 1 41 C-0.66577625 37.66844749 -0.12007856 33.93463941 -0.09765625 30.2734375 C-0.0962413 29.41062164 -0.09482635 28.54780579 -0.09336853 27.65884399 C-0.08776188 24.8975277 -0.07520827 22.13629188 -0.0625 19.375 C-0.05748586 17.5052095 -0.0529228 15.63541774 -0.04882812 13.765625 C-0.03779029 9.17705223 -0.0205212 4.58853977 0 0 Z " fill="#6A6869" transform="translate(213,74)"/>
<path d="M0 0 C0.99 0 1.98 0 3 0 C2.4341669 3.28183197 1.69257836 4.99197546 -1 7 C-3.91796875 7.29296875 -3.91796875 7.29296875 -7.1875 7.1875 C-8.27417969 7.16042969 -9.36085937 7.13335937 -10.48046875 7.10546875 C-11.31191406 7.07066406 -12.14335937 7.03585938 -13 7 C-13.33 6.34 -13.66 5.68 -14 5 C-13.32453125 4.97421875 -12.6490625 4.9484375 -11.953125 4.921875 C-6.29613659 4.70200545 -6.29613659 4.70200545 -1.5625 1.9375 C-1.046875 1.298125 -0.53125 0.65875 0 0 Z " fill="#343333" transform="translate(141,82)"/>
<path d="M0 0 C5.94 0 11.88 0 18 0 C18 0.66 18 1.32 18 2 C15.23547967 3.38226016 12.9538637 3.09525387 9.875 3.0625 C8.77929688 3.05347656 7.68359375 3.04445313 6.5546875 3.03515625 C5.29011719 3.01775391 5.29011719 3.01775391 4 3 C4 2.34 4 1.68 4 1 C3.01 1.33 2.02 1.66 1 2 C0.67 1.34 0.34 0.68 0 0 Z " fill="#5B5B5A" transform="translate(393,78)"/>
<path d="M0 0 C0.66 0 1.32 0 2 0 C2.12375 0.94875 2.2475 1.8975 2.375 2.875 C2.71687177 6.08667191 2.71687177 6.08667191 5 8 C5.39764263 9.98821313 5.73775349 11.98944339 6 14 C4.68 14.33 3.36 14.66 2 15 C1.47217261 12.68889138 0.95246631 10.37647528 0.4375 8.0625 C0.28603516 7.40314453 0.13457031 6.74378906 -0.02148438 6.06445312 C-0.39173308 4.3854183 -0.70072071 2.69312549 -1 1 C-0.67 0.67 -0.34 0.34 0 0 Z " fill="#535150" transform="translate(25,31)"/>
<path d="M0 0 C0.66 0.33 1.32 0.66 2 1 C0.90004088 3.84048268 -0.25280657 6.49568941 -2 9 C-5.25 10 -5.25 10 -8 10 C-8 8.68 -8 7.36 -8 6 C-6.25 4.296875 -6.25 4.296875 -4 2.75 C-3.2575 2.22921875 -2.515 1.7084375 -1.75 1.171875 C-1.1725 0.78515625 -0.595 0.3984375 0 0 Z " fill="#575653" transform="translate(121,127)"/>
<path d="M0 0 C0.99 0.66 1.98 1.32 3 2 C2.34 2 1.68 2 1 2 C1 2.66 1 3.32 1 4 C0.01 4 -0.98 4 -2 4 C-1.67 4.99 -1.34 5.98 -1 7 C-2.32 8.32 -3.64 9.64 -5 11 C-5.66 10.67 -6.32 10.34 -7 10 C-7 8.35 -7 6.7 -7 5 C-6.01 4.67 -5.02 4.34 -4 4 C-4 3.34 -4 2.68 -4 2 C-2.68 1.34 -1.36 0.68 0 0 Z " fill="#4D4D4D" transform="translate(144,101)"/>
<path d="M0 0 C1.65 0.33 3.3 0.66 5 1 C4.5020163 4.73487777 4.12508244 6.81237635 2 10 C1.01 10 0.02 10 -1 10 C-0.67 7.69 -0.34 5.38 0 3 C-1.65 3 -3.3 3 -5 3 C-5 2.67 -5 2.34 -5 2 C-3.35 2 -1.7 2 0 2 C0 1.34 0 0.68 0 0 Z " fill="#5D5D5D" transform="translate(491,71)"/>
<path d="M0 0 C0.99 0 1.98 0 3 0 C3.33 1.32 3.66 2.64 4 4 C6.97 4.495 6.97 4.495 10 5 C9.67 5.66 9.34 6.32 9 7 C1.25 7.125 1.25 7.125 -1 6 C-0.67 4.02 -0.34 2.04 0 0 Z " fill="#504E4F" transform="translate(278,108)"/>
<path d="M0 0 C-0.8125 3.4375 -0.8125 3.4375 -2 7 C-2.99 7.33 -3.98 7.66 -5 8 C-4.67 6.35 -4.34 4.7 -4 3 C-5.65 3.33 -7.3 3.66 -9 4 C-8 1 -8 1 -5.625 -0.25 C-3 -1 -3 -1 0 0 Z M-10 4 C-9.67 4.66 -9.34 5.32 -9 6 C-9.66 5.67 -10.32 5.34 -11 5 C-10.67 4.67 -10.34 4.34 -10 4 Z " fill="#51504F" transform="translate(184,33)"/>
<path d="M0 0 C0.33 0 0.66 0 1 0 C1.33 2.97 1.66 5.94 2 9 C2.33 9 2.66 9 3 9 C3 11.31 3 13.62 3 16 C0.03 16 -2.94 16 -6 16 C-6 15.01 -6 14.02 -6 13 C-3.03 13.495 -3.03 13.495 0 14 C0 9.38 0 4.76 0 0 Z " fill="#545455" transform="translate(384,99)"/>
<path d="M0 0 C1.98 0 3.96 0 6 0 C5.67 0.99 5.34 1.98 5 3 C6.65 2.67 8.3 2.34 10 2 C10.66 3.32 11.32 4.64 12 6 C9.5332355 6.88336837 8.36140628 7.1312406 5.859375 6.22265625 C5.16328125 5.83980469 4.4671875 5.45695313 3.75 5.0625 C3.04359375 4.68222656 2.3371875 4.30195313 1.609375 3.91015625 C1.07828125 3.60980469 0.5471875 3.30945313 0 3 C0 2.01 0 1.02 0 0 Z " fill="#4F4E4D" transform="translate(75,125)"/>
<path d="M0 0 C3.3 0.33 6.6 0.66 10 1 C10 1.33 10 1.66 10 2 C7.69 2 5.38 2 3 2 C3 6.95 3 11.9 3 17 C2.67 17 2.34 17 2 17 C0.7017874 11.23918159 -0.25706972 5.91260345 0 0 Z " fill="#686867" transform="translate(278,72)"/>
<path d="M0 0 C0 0.66 0 1.32 0 2 C-1.65 2.33 -3.3 2.66 -5 3 C-5 3.66 -5 4.32 -5 5 C-9.43076923 7.09230769 -9.43076923 7.09230769 -12.3125 6.625 C-12.869375 6.41875 -13.42625 6.2125 -14 6 C-11.95428391 3.95428391 -10.06503724 2.74663054 -7.5625 1.3125 C-6.78003906 0.85488281 -5.99757812 0.39726563 -5.19140625 -0.07421875 C-3 -1 -3 -1 0 0 Z " fill="#565657" transform="translate(166,59)"/>
<path d="M0 0 C0.33 0.99 0.66 1.98 1 3 C1.66 3 2.32 3 3 3 C3.33 4.65 3.66 6.3 4 8 C-2.0546875 8.1953125 -2.0546875 8.1953125 -4 8 C-4.66 7.34 -5.32 6.68 -6 6 C-4.35 5.67 -2.7 5.34 -1 5 C-1.33 3.68 -1.66 2.36 -2 1 C-1.34 0.67 -0.68 0.34 0 0 Z " fill="#525252" transform="translate(551,107)"/>
<path d="M0 0 C1.65 0 3.3 0 5 0 C5 0.99 5 1.98 5 3 C4.01 3 3.02 3 2 3 C2.04125 4.2375 2.0825 5.475 2.125 6.75 C2.24851563 10.455469 1.80568106 11.38863788 0 15 C0 10.05 0 5.1 0 0 Z " fill="#5F5F60" transform="translate(385,97)"/>
<path d="M0 0 C0.99 0.495 0.99 0.495 2 1 C2.625 3.0625 2.625 3.0625 3 5 C4.32 5.33 5.64 5.66 7 6 C7 6.66 7 7.32 7 8 C7.99 8.33 8.98 8.66 10 9 C10 9.66 10 10.32 10 11 C6.85262818 10.30058404 3.97411124 9.23921302 1 8 C0.67 5.36 0.34 2.72 0 0 Z " fill="#505050" transform="translate(30,47)"/>
<path d="M0 0 C0.33 0.66 0.66 1.32 1 2 C3.32156597 2.40729228 5.6568787 2.74438677 8 3 C7.67 3.66 7.34 4.32 7 5 C3.7 5 0.4 5 -3 5 C-2.67 3.68 -2.34 2.36 -2 1 C-1.34 0.67 -0.68 0.34 0 0 Z " fill="#565454" transform="translate(496,110)"/>
<path d="M0 0 C1.85772162 0.08984301 3.71247985 0.24611861 5.5625 0.4375 C7.08037109 0.59025391 7.08037109 0.59025391 8.62890625 0.74609375 C9.80259766 0.87177734 9.80259766 0.87177734 11 1 C11 1.33 11 1.66 11 2 C7.97265625 2.24414062 7.97265625 2.24414062 4.9453125 2.48828125 C2.60480784 2.87393036 2.60480784 2.87393036 1 6 C0.34 6 -0.32 6 -1 6 C-1.33 6.66 -1.66 7.32 -2 8 C-2.66 8 -3.32 8 -4 8 C-4 7.34 -4 6.68 -4 6 C-3.34 6 -2.68 6 -2 6 C-1.855625 5.195625 -1.71125 4.39125 -1.5625 3.5625 C-1 1 -1 1 0 0 Z " fill="#555554" transform="translate(517,72)"/>
<path d="M0 0 C4.29 0.33 8.58 0.66 13 1 C12.67 1.66 12.34 2.32 12 3 C7.71 3 3.42 3 -1 3 C-0.67 2.01 -0.34 1.02 0 0 Z " fill="#717170" transform="translate(388,90)"/>
<path d="M0 0 C-0.33 1.65 -0.66 3.3 -1 5 C-0.01 4.67 0.98 4.34 2 4 C2 4.99 2 5.98 2 7 C-1.68754757 6.50168276 -3.60490662 5.89932357 -6 3 C-4.60722783 0.21445565 -3.01148006 0 0 0 Z " fill="#4F4E4D" transform="translate(180,36)"/>
<path d="M0 0 C2.97 0.33 5.94 0.66 9 1 C9.33 1.99 9.66 2.98 10 4 C6.7 4 3.4 4 0 4 C-0.33 3.34 -0.66 2.68 -1 2 C-0.67 1.34 -0.34 0.68 0 0 Z " fill="#545454" transform="translate(461,111)"/>
<path d="M0 0 C0.66 0.33 1.32 0.66 2 1 C0.68 3.64 -0.64 6.28 -2 9 C-2.99 9 -3.98 9 -5 9 C-5.33 7.68 -5.66 6.36 -6 5 C-5.38125 4.54625 -4.7625 4.0925 -4.125 3.625 C-1.94080167 2.02891081 -1.94080167 2.02891081 0 0 Z " fill="#3E3E3E" transform="translate(107,104)"/>
<path d="M0 0 C1.45792884 -0.05399736 2.91642712 -0.09279177 4.375 -0.125 C5.18710937 -0.14820312 5.99921875 -0.17140625 6.8359375 -0.1953125 C9 0 9 0 11 2 C10.625 5.125 10.625 5.125 10 8 C9.01 7.67 8.02 7.34 7 7 C7.33 5.35 7.66 3.7 8 2 C5.36 2 2.72 2 0 2 C0 1.34 0 0.68 0 0 Z " fill="#3D3D3D" transform="translate(280,71)"/>
<path d="M0 0 C4.75 1.875 4.75 1.875 7 3 C6.67 4.32 6.34 5.64 6 7 C4.0625 6.625 4.0625 6.625 2 6 C1.67 5.34 1.34 4.68 1 4 C-1.02463255 3.34786708 -1.02463255 3.34786708 -3 3 C-2.01 2.01 -1.02 1.02 0 0 Z " fill="#4F4F4F" transform="translate(41,64)"/>
<path d="M0 0 C0.99 0 1.98 0 3 0 C2.39479338 3.3891571 1.08699255 5.30430129 -1 8 C-1.33 8.99 -1.66 9.98 -2 11 C-2.66 10.67 -3.32 10.34 -4 10 C-3.34 7.36 -2.68 4.72 -2 2 C-1.34 2 -0.68 2 0 2 C0 1.34 0 0.68 0 0 Z " fill="#525151" transform="translate(473,91)"/>
<path d="M0 0 C2.38564077 0.57584432 4.66682784 1.22227595 7 2 C6.67 2.99 6.34 3.98 6 5 C3.4375 6.1875 3.4375 6.1875 1 7 C0.67 4.69 0.34 2.38 0 0 Z " fill="#585758" transform="translate(31,59)"/>
<path d="M0 0 C2.625 1.25 2.625 1.25 5 3 C5 3.99 5 4.98 5 6 C4.05125 5.67 3.1025 5.34 2.125 5 C-0.77062452 3.89840809 -0.77062452 3.89840809 -3 4 C-2.67 3.01 -2.34 2.02 -2 1 C-1.34 0.67 -0.68 0.34 0 0 Z M-5 4 C-3 5 -3 5 -3 5 Z " fill="#525252" transform="translate(265,87)"/>
<path d="M0 0 C0.66 0 1.32 0 2 0 C3.23076923 6.4 3.23076923 6.4 2.0625 9.4375 C1.711875 9.953125 1.36125 10.46875 1 11 C0.67 11 0.34 11 0 11 C-0.19406478 9.35492782 -0.38007935 7.70890406 -0.5625 6.0625 C-0.66691406 5.14597656 -0.77132812 4.22945313 -0.87890625 3.28515625 C-0.91886719 2.53105469 -0.95882812 1.77695313 -1 1 C-0.67 0.67 -0.34 0.34 0 0 Z " fill="#545454" transform="translate(143,70)"/>
<path d="M0 0 C0.33 0.99 0.66 1.98 1 3 C0.34 3 -0.32 3 -1 3 C-0.34 4.32 0.32 5.64 1 7 C-0.32 7.33 -1.64 7.66 -3 8 C-3.66 7.01 -4.32 6.02 -5 5 C-4.01 5 -3.02 5 -2 5 C-2.99 4.34 -3.98 3.68 -5 3 C-4.67 2.34 -4.34 1.68 -4 1 C-2.02 1.495 -2.02 1.495 0 2 C0 1.34 0 0.68 0 0 Z " fill="#434343" transform="translate(550,105)"/>
<path d="M0 0 C0.99 0.33 1.98 0.66 3 1 C3.33 3.97 3.66 6.94 4 10 C3.67 8.68 3.34 7.36 3 6 C2.34 6 1.68 6 1 6 C0.67 6.99 0.34 7.98 0 9 C0 6.03 0 3.06 0 0 Z " fill="#343334" transform="translate(287,102)"/>
<path d="M0 0 C1.9375 0.6875 1.9375 0.6875 4 2 C4.75 4.625 4.75 4.625 5 7 C3.35 6.67 1.7 6.34 0 6 C-0.38218767 4.34385343 -0.71395102 2.67542976 -1 1 C-0.67 0.67 -0.34 0.34 0 0 Z " fill="#4F4F4F" transform="translate(545,100)"/>
<path d="M0 0 C0.66 0 1.32 0 2 0 C2 2.97 2 5.94 2 9 C0.68 8.34 -0.64 7.68 -2 7 C-1.125 1.125 -1.125 1.125 0 0 Z " fill="#565656" transform="translate(156,79)"/>
<path d="M0 0 C1.3921875 0.3403125 1.3921875 0.3403125 2.8125 0.6875 C2.4825 1.6775 2.1525 2.6675 1.8125 3.6875 C-1.0625 4.3125 -1.0625 4.3125 -4.1875 4.6875 C-4.8475 4.0275 -5.5075 3.3675 -6.1875 2.6875 C-4.14987265 -0.14253799 -3.59070275 -0.35202968 0 0 Z " fill="#505051" transform="translate(86.1875,81.3125)"/>
<path d="M0 0 C3.37503669 1.1858237 5.64722731 2.27573689 8 5 C5 6 5 6 2 5 C2 4.34 2 3.68 2 3 C1.01 2.67 0.02 2.34 -1 2 C-0.67 1.34 -0.34 0.68 0 0 Z " fill="#535152" transform="translate(54,64)"/>
<path d="M0 0 C0.66 0.66 1.32 1.32 2 2 C-0.52956528 5.0916909 -3.22454612 5.90931332 -7 7 C-7 6.01 -7 5.02 -7 4 C-4.69 2.68 -2.38 1.36 0 0 Z " fill="#525252" transform="translate(166,40)"/>
<path d="M0 0 C0 0.66 0 1.32 0 2 C-0.9590625 2.1546875 -0.9590625 2.1546875 -1.9375 2.3125 C-2.618125 2.539375 -3.29875 2.76625 -4 3 C-4.33 3.99 -4.66 4.98 -5 6 C-5.99 6 -6.98 6 -8 6 C-8 3 -8 3 -7 1 C-4 0 -4 0 0 0 Z " fill="#414141" transform="translate(491,71)"/>
<path d="M0 0 C2.97 0.33 5.94 0.66 9 1 C5.91111478 3.05925681 5.29064073 3.2390374 1.8125 3.125 C-0.0746875 3.063125 -0.0746875 3.063125 -2 3 C-1.34 2.67 -0.68 2.34 0 2 C0 1.34 0 0.68 0 0 Z " fill="#646364" transform="translate(207,71)"/>
<path d="M0 0 C0 0.99 0 1.98 0 3 C-2 5 -2 5 -5.125 5.125 C-6.548125 5.063125 -6.548125 5.063125 -8 5 C-7 2 -7 2 -5.125 0.8125 C-3 0 -3 0 0 0 Z " fill="#4D4D4D" transform="translate(422,110)"/>
<path d="M0 0 C-0.33 1.65 -0.66 3.3 -1 5 C-2.32 4.67 -3.64 4.34 -5 4 C-5 3.34 -5 2.68 -5 2 C-5.66 1.67 -6.32 1.34 -7 1 C-4 0 -4 0 0 0 Z " fill="#424041" transform="translate(278,107)"/>
<path d="M0 0 C-0.25 1.875 -0.25 1.875 -1 4 C-3.0625 5.25 -3.0625 5.25 -5 6 C-5 5.34 -5 4.68 -5 4 C-5.66 3.67 -6.32 3.34 -7 3 C-3.375 0 -3.375 0 0 0 Z " fill="#3D3D3D" transform="translate(144,82)"/>
<path d="M0 0 C0.66 0.99 1.32 1.98 2 3 C1.67 3.66 1.34 4.32 1 5 C0.34 5 -0.32 5 -1 5 C-1 5.66 -1 6.32 -1 7 C-1.99 7 -2.98 7 -4 7 C-3.6875 4.625 -3.6875 4.625 -3 2 C-2.01 1.34 -1.02 0.68 0 0 Z " fill="#555555" transform="translate(484,75)"/>
<path d="M0 0 C1.32 0 2.64 0 4 0 C3.67 2.64 3.34 5.28 3 8 C2.67 7.34 2.34 6.68 2 6 C1.34 5.67 0.68 5.34 0 5 C0.33 4.67 0.66 4.34 1 4 C0.34 3.34 -0.32 2.68 -1 2 C-0.67 1.34 -0.34 0.68 0 0 Z " fill="#4F4F4F" transform="translate(487,74)"/>
<path d="M0 0 C0.66 0 1.32 0 2 0 C2 0.66 2 1.32 2 2 C2.99 2.33 3.98 2.66 5 3 C4.67 3.99 4.34 4.98 4 6 C3.34 6 2.68 6 2 6 C1.67 6.66 1.34 7.32 1 8 C0.67 5.36 0.34 2.72 0 0 Z " fill="#50504E" transform="translate(456,105)"/>
<path d="M0 0 C0.99 0.66 1.98 1.32 3 2 C2.34 2 1.68 2 1 2 C1 2.66 1 3.32 1 4 C-0.65 4.66 -2.3 5.32 -4 6 C-4.66 5.34 -5.32 4.68 -6 4 C-5.34 4 -4.68 4 -4 4 C-4 3.34 -4 2.68 -4 2 C-2.68 1.34 -1.36 0.68 0 0 Z " fill="#535352" transform="translate(144,101)"/>
<path d="M0 0 C2.9375 0.75 2.9375 0.75 6 2 C6.875 4.125 6.875 4.125 7 6 C6.34 6 5.68 6 5 6 C5 5.34 5 4.68 5 4 C3.35 3.67 1.7 3.34 0 3 C0 2.01 0 1.02 0 0 Z " fill="#5A5852" transform="translate(28,33)"/>
<path d="M0 0 C0.99 0 1.98 0 3 0 C2.67 1.98 2.34 3.96 2 6 C1.01 6 0.02 6 -1 6 C-1.042721 4.33388095 -1.04063832 2.66617115 -1 1 C-0.67 0.67 -0.34 0.34 0 0 Z " fill="#525253" transform="translate(507,104)"/>
<path d="M0 0 C1.32 0.33 2.64 0.66 4 1 C3.67 2.32 3.34 3.64 3 5 C2.67 4.34 2.34 3.68 2 3 C-0.97 3 -3.94 3 -7 3 C-7 2.67 -7 2.34 -7 2 C-4.69 2 -2.38 2 0 2 C0 1.34 0 0.68 0 0 Z " fill="#5B5B5A" transform="translate(446,71)"/>
<path d="M0 0 C2.49361571 1.20381448 4.68143083 2.45428722 7 4 C6.67 4.66 6.34 5.32 6 6 C3.36 4.68 0.72 3.36 -2 2 C-1.34 1.34 -0.68 0.68 0 0 Z " fill="#565655" transform="translate(95,70)"/>
<path d="M0 0 C0.99 0.66 1.98 1.32 3 2 C2.6875 3.9375 2.6875 3.9375 2 6 C1.01 6.33 0.02 6.66 -1 7 C-0.67 5.35 -0.34 3.7 0 2 C-0.66 1.67 -1.32 1.34 -2 1 C-1.34 0.67 -0.68 0.34 0 0 Z " fill="#5E5D5B" transform="translate(180,34)"/>
<path d="M0 0 C0.99 0 1.98 0 3 0 C5.1875 3 5.1875 3 7 6 C3.75728494 5.4409112 2.06942576 4.5867822 0 2 C0 1.34 0 0.68 0 0 Z " fill="#615F5F" transform="translate(84,125)"/>
<path d="M0 0 C0.33 0 0.66 0 1 0 C1 2.31 1 4.62 1 7 C-0.65 6.67 -2.3 6.34 -4 6 C-4.33 5.01 -4.66 4.02 -5 3 C-3.68 3 -2.36 3 -1 3 C-0.67 2.01 -0.34 1.02 0 0 Z " fill="#5C5D5C" transform="translate(280,95)"/>
<path d="M0 0 C0.66 0 1.32 0 2 0 C2.33 2.31 2.66 4.62 3 7 C2.01 7.66 1.02 8.32 0 9 C0 6.03 0 3.06 0 0 Z " fill="#646463" transform="translate(385,85)"/>
<path d="M0 0 C1.67542976 0.28604898 3.34385343 0.61781233 5 1 C4.67 1.99 4.34 2.98 4 4 C3.01 3.34 2.02 2.68 1 2 C0.67 2.99 0.34 3.98 0 5 C-0.5625 3.0625 -0.5625 3.0625 -1 1 C-0.67 0.67 -0.34 0.34 0 0 Z " fill="#585858" transform="translate(522,81)"/>
<path d="M0 0 C0.33 0.99 0.66 1.98 1 3 C-1.63250388 4.31625194 -2.80179056 3.74813658 -5.625 3.0625 C-6.85089844 2.77052734 -6.85089844 2.77052734 -8.1015625 2.47265625 C-9.04128906 2.23869141 -9.04128906 2.23869141 -10 2 C-10 1.67 -10 1.34 -10 1 C-3.375 0 -3.375 0 0 0 Z " fill="#535352" transform="translate(417,73)"/>
<path d="M0 0 C3.3 0.33 6.6 0.66 10 1 C10 1.33 10 1.66 10 2 C8.906875 2.12375 7.81375 2.2475 6.6875 2.375 C2.92618198 2.75464801 2.92618198 2.75464801 0 5 C0 3.35 0 1.7 0 0 Z " fill="#5D5D5D" transform="translate(278,72)"/>
<path d="M0 0 C-0.33 0.99 -0.66 1.98 -1 3 C-3.31 2.67 -5.62 2.34 -8 2 C-8 1.67 -8 1.34 -8 1 C-2.25 -1.125 -2.25 -1.125 0 0 Z " fill="#5D5D5D" transform="translate(553,112)"/>
<path d="M0 0 C1.65 0.33 3.3 0.66 5 1 C5 1.99 5 2.98 5 4 C3.35 3.67 1.7 3.34 0 3 C0 2.01 0 1.02 0 0 Z " fill="#525351" transform="translate(42,41)"/>
</svg>
